<svg width="152" height="31" viewBox="0 0 152 31" fill="none" xmlns="http://www.w3.org/2000/svg">
<path d="M17.472 20.4895V26.0148H14.912V22.8361H3.136L3.11467 26.0148H0.554667L0.576 20.4895H2.38933V14.3668C2.38933 12.9446 2.65956 11.7357 3.2 10.7401C3.75467 9.74456 4.52978 8.99079 5.52533 8.47879C6.52089 7.95256 7.68 7.68945 9.00267 7.68945C10.3396 7.68945 11.5058 7.94545 12.5013 8.45745C13.4969 8.96945 14.2649 9.73034 14.8053 10.7401C15.36 11.7357 15.6373 12.9446 15.6373 14.3668V20.4895H17.472ZM12.864 20.4895V14.1108C12.864 12.8023 12.5227 11.8139 11.84 11.1455C11.1573 10.4628 10.2116 10.1215 9.00267 10.1215C7.79378 10.1215 6.848 10.4628 6.16533 11.1455C5.49689 11.8139 5.16267 12.8023 5.16267 14.1108V20.4895H12.864ZM24.786 22.9855C23.634 22.9855 22.5958 22.7366 21.6713 22.2388C20.7469 21.741 20.0216 21.0512 19.4953 20.1695C18.9833 19.2735 18.7273 18.2637 18.7273 17.1401C18.7273 16.0166 18.9833 15.0139 19.4953 14.1321C20.0216 13.2503 20.7469 12.5606 21.6713 12.0628C22.5958 11.565 23.634 11.3161 24.786 11.3161C25.9522 11.3161 26.9976 11.565 27.922 12.0628C28.8464 12.5606 29.5647 13.2503 30.0767 14.1321C30.6029 15.0139 30.866 16.0166 30.866 17.1401C30.866 18.2637 30.6029 19.2735 30.0767 20.1695C29.5647 21.0512 28.8464 21.741 27.922 22.2388C26.9976 22.7366 25.9522 22.9855 24.786 22.9855ZM24.786 20.7028C25.7673 20.7028 26.578 20.3757 27.218 19.7215C27.858 19.0672 28.178 18.2068 28.178 17.1401C28.178 16.0735 27.858 15.213 27.218 14.5588C26.578 13.9046 25.7673 13.5775 24.786 13.5775C23.8047 13.5775 22.994 13.9046 22.354 14.5588C21.7282 15.213 21.4153 16.0735 21.4153 17.1401C21.4153 18.2068 21.7282 19.0672 22.354 19.7215C22.994 20.3757 23.8047 20.7028 24.786 20.7028ZM38.2363 18.2708H36.167V22.8361H33.5003V11.4441H36.167V16.0521H38.3003L41.671 11.4441H44.5297L40.391 16.9268L44.807 22.8361H41.671L38.2363 18.2708ZM61.0665 11.3161C62.5029 11.3161 63.6407 11.7357 64.4798 12.5748C65.3189 13.3997 65.7385 14.6441 65.7385 16.3081V22.8361H63.0718V16.6495C63.0718 15.6539 62.8514 14.9072 62.4105 14.4095C61.9696 13.8975 61.3367 13.6415 60.5118 13.6415C59.6158 13.6415 58.8976 13.9401 58.3572 14.5375C57.8167 15.1206 57.5465 15.9597 57.5465 17.0548V22.8361H54.8798V16.6495C54.8798 15.6539 54.6594 14.9072 54.2185 14.4095C53.7776 13.8975 53.1447 13.6415 52.3198 13.6415C51.4096 13.6415 50.6843 13.933 50.1438 14.5161C49.6176 15.0992 49.3545 15.9455 49.3545 17.0548V22.8361H46.6878V11.4441H49.2265V12.8948C49.6532 12.3828 50.1865 11.9917 50.8265 11.7215C51.4665 11.4512 52.1776 11.3161 52.9598 11.3161C53.8132 11.3161 54.5669 11.4797 55.2212 11.8068C55.8896 12.1197 56.4158 12.589 56.7998 13.2148C57.2692 12.6175 57.8736 12.1552 58.6132 11.8281C59.3527 11.4868 60.1705 11.3161 61.0665 11.3161ZM74.0985 22.9855C72.9465 22.9855 71.9083 22.7366 70.9838 22.2388C70.0594 21.741 69.3341 21.0512 68.8078 20.1695C68.2958 19.2735 68.0398 18.2637 68.0398 17.1401C68.0398 16.0166 68.2958 15.0139 68.8078 14.1321C69.3341 13.2503 70.0594 12.5606 70.9838 12.0628C71.9083 11.565 72.9465 11.3161 74.0985 11.3161C75.2647 11.3161 76.3101 11.565 77.2345 12.0628C78.159 12.5606 78.8772 13.2503 79.3892 14.1321C79.9154 15.0139 80.1785 16.0166 80.1785 17.1401C80.1785 18.2637 79.9154 19.2735 79.3892 20.1695C78.8772 21.0512 78.159 21.741 77.2345 22.2388C76.3101 22.7366 75.2647 22.9855 74.0985 22.9855ZM74.0985 20.7028C75.0798 20.7028 75.8905 20.3757 76.5305 19.7215C77.1705 19.0672 77.4905 18.2068 77.4905 17.1401C77.4905 16.0735 77.1705 15.213 76.5305 14.5588C75.8905 13.9046 75.0798 13.5775 74.0985 13.5775C73.1172 13.5775 72.3065 13.9046 71.6665 14.5588C71.0407 15.213 70.7278 16.0735 70.7278 17.1401C70.7278 18.2068 71.0407 19.0672 71.6665 19.7215C72.3065 20.3757 73.1172 20.7028 74.0985 20.7028ZM88.4448 11.3161C89.6253 11.3161 90.6564 11.5579 91.5382 12.0415C92.4342 12.525 93.1239 13.2077 93.6075 14.0895C94.1053 14.9712 94.3542 15.9952 94.3542 17.1615C94.3542 18.3135 94.1195 19.3303 93.6502 20.2121C93.1808 21.0939 92.5195 21.7766 91.6662 22.2601C90.8271 22.7437 89.8528 22.9855 88.7435 22.9855C87.1648 22.9855 85.9275 22.4806 85.0315 21.4708V26.9748H82.3435V17.1828C82.3435 16.0308 82.5995 15.0139 83.1115 14.1321C83.6235 13.2361 84.3346 12.5463 85.2448 12.0628C86.1693 11.565 87.2359 11.3161 88.4448 11.3161ZM88.3382 20.7241C89.3337 20.7241 90.1444 20.397 90.7702 19.7428C91.3959 19.0743 91.7088 18.2139 91.7088 17.1615C91.7088 16.109 91.3959 15.2486 90.7702 14.5801C90.1444 13.9117 89.3337 13.5775 88.3382 13.5775C87.3284 13.5775 86.5177 13.9046 85.9062 14.5588C85.2946 15.213 84.9888 16.0735 84.9888 17.1401C84.9888 18.2068 85.2946 19.0743 85.9062 19.7428C86.5319 20.397 87.3426 20.7241 88.3382 20.7241ZM108.72 16.5428H105.946V22.8361H103.216V7.90279H105.946V14.1535H108.805L113.093 7.90279H116.037L110.938 15.1348L116.229 22.8361H113.093L108.72 16.5428ZM122.744 22.9855C121.592 22.9855 120.554 22.7366 119.63 22.2388C118.705 21.741 117.98 21.0512 117.454 20.1695C116.942 19.2735 116.686 18.2637 116.686 17.1401C116.686 16.0166 116.942 15.0139 117.454 14.1321C117.98 13.2503 118.705 12.5606 119.63 12.0628C120.554 11.565 121.592 11.3161 122.744 11.3161C123.911 11.3161 124.956 11.565 125.88 12.0628C126.805 12.5606 127.523 13.2503 128.035 14.1321C128.561 15.0139 128.824 16.0166 128.824 17.1401C128.824 18.2637 128.561 19.2735 128.035 20.1695C127.523 21.0512 126.805 21.741 125.88 22.2388C124.956 22.7366 123.911 22.9855 122.744 22.9855ZM122.744 20.7028C123.726 20.7028 124.536 20.3757 125.176 19.7215C125.816 19.0672 126.136 18.2068 126.136 17.1401C126.136 16.0735 125.816 15.213 125.176 14.5588C124.536 13.9046 123.726 13.5775 122.744 13.5775C121.763 13.5775 120.952 13.9046 120.312 14.5588C119.687 15.213 119.374 16.0735 119.374 17.1401C119.374 18.2068 119.687 19.0672 120.312 19.7215C120.952 20.3757 121.763 20.7028 122.744 20.7028ZM145.837 11.3161C147.274 11.3161 148.412 11.7357 149.251 12.5748C150.09 13.3997 150.509 14.6441 150.509 16.3081V22.8361H147.843V16.6495C147.843 15.6539 147.622 14.9072 147.181 14.4095C146.74 13.8975 146.108 13.6415 145.283 13.6415C144.387 13.6415 143.668 13.9401 143.128 14.5375C142.588 15.1206 142.317 15.9597 142.317 17.0548V22.8361H139.651V16.6495C139.651 15.6539 139.43 14.9072 138.989 14.4095C138.548 13.8975 137.916 13.6415 137.091 13.6415C136.18 13.6415 135.455 13.933 134.915 14.5161C134.388 15.0992 134.125 15.9455 134.125 17.0548V22.8361H131.459V11.4441H133.997V12.8948C134.424 12.3828 134.957 11.9917 135.597 11.7215C136.237 11.4512 136.948 11.3161 137.731 11.3161C138.584 11.3161 139.338 11.4797 139.992 11.8068C140.66 12.1197 141.187 12.589 141.571 13.2148C142.04 12.6175 142.644 12.1552 143.384 11.8281C144.124 11.4868 144.941 11.3161 145.837 11.3161Z" fill="#212D4A"/>
</svg>
