<svg width="152" height="32" viewBox="0 0 152 32" fill="none" xmlns="http://www.w3.org/2000/svg">
<path d="M17.472 21.2894V26.8148H14.912V23.6361H3.136L3.11467 26.8148H0.554667L0.576 21.2894H2.38933V15.1668C2.38933 13.7446 2.65956 12.5357 3.2 11.5401C3.75467 10.5446 4.52978 9.79077 5.52533 9.27877C6.52089 8.75255 7.68 8.48944 9.00267 8.48944C10.3396 8.48944 11.5058 8.74544 12.5013 9.25744C13.4969 9.76944 14.2649 10.5303 14.8053 11.5401C15.36 12.5357 15.6373 13.7446 15.6373 15.1668V21.2894H17.472ZM12.864 21.2894V14.9108C12.864 13.6023 12.5227 12.6139 11.84 11.9454C11.1573 11.2628 10.2116 10.9214 9.00267 10.9214C7.79378 10.9214 6.848 11.2628 6.16533 11.9454C5.49689 12.6139 5.16267 13.6023 5.16267 14.9108V21.2894H12.864ZM24.786 23.7854C23.634 23.7854 22.5958 23.5366 21.6713 23.0388C20.7469 22.541 20.0216 21.8512 19.4953 20.9694C18.9833 20.0734 18.7273 19.0637 18.7273 17.9401C18.7273 16.8166 18.9833 15.8139 19.4953 14.9321C20.0216 14.0503 20.7469 13.3606 21.6713 12.8628C22.5958 12.365 23.634 12.1161 24.786 12.1161C25.9522 12.1161 26.9976 12.365 27.922 12.8628C28.8464 13.3606 29.5647 14.0503 30.0767 14.9321C30.6029 15.8139 30.866 16.8166 30.866 17.9401C30.866 19.0637 30.6029 20.0734 30.0767 20.9694C29.5647 21.8512 28.8464 22.541 27.922 23.0388C26.9976 23.5366 25.9522 23.7854 24.786 23.7854ZM24.786 21.5028C25.7673 21.5028 26.578 21.1757 27.218 20.5214C27.858 19.8672 28.178 19.0068 28.178 17.9401C28.178 16.8734 27.858 16.013 27.218 15.3588C26.578 14.7046 25.7673 14.3774 24.786 14.3774C23.8047 14.3774 22.994 14.7046 22.354 15.3588C21.7282 16.013 21.4153 16.8734 21.4153 17.9401C21.4153 19.0068 21.7282 19.8672 22.354 20.5214C22.994 21.1757 23.8047 21.5028 24.786 21.5028ZM38.2363 19.0708H36.167V23.6361H33.5003V12.2441H36.167V16.8521H38.3003L41.671 12.2441H44.5297L40.391 17.7268L44.807 23.6361H41.671L38.2363 19.0708ZM61.0665 12.1161C62.5029 12.1161 63.6407 12.5357 64.4798 13.3748C65.3189 14.1997 65.7385 15.4441 65.7385 17.1081V23.6361H63.0718V17.4494C63.0718 16.4539 62.8514 15.7072 62.4105 15.2094C61.9696 14.6974 61.3367 14.4414 60.5118 14.4414C59.6158 14.4414 58.8976 14.7401 58.3572 15.3374C57.8167 15.9206 57.5465 16.7597 57.5465 17.8548V23.6361H54.8798V17.4494C54.8798 16.4539 54.6594 15.7072 54.2185 15.2094C53.7776 14.6974 53.1447 14.4414 52.3198 14.4414C51.4096 14.4414 50.6843 14.733 50.1438 15.3161C49.6176 15.8992 49.3545 16.7454 49.3545 17.8548V23.6361H46.6878V12.2441H49.2265V13.6948C49.6532 13.1828 50.1865 12.7917 50.8265 12.5214C51.4665 12.2512 52.1776 12.1161 52.9598 12.1161C53.8132 12.1161 54.5669 12.2797 55.2212 12.6068C55.8896 12.9197 56.4158 13.389 56.7998 14.0148C57.2692 13.4174 57.8736 12.9552 58.6132 12.6281C59.3527 12.2868 60.1705 12.1161 61.0665 12.1161ZM74.0985 23.7854C72.9465 23.7854 71.9083 23.5366 70.9838 23.0388C70.0594 22.541 69.3341 21.8512 68.8078 20.9694C68.2958 20.0734 68.0398 19.0637 68.0398 17.9401C68.0398 16.8166 68.2958 15.8139 68.8078 14.9321C69.3341 14.0503 70.0594 13.3606 70.9838 12.8628C71.9083 12.365 72.9465 12.1161 74.0985 12.1161C75.2647 12.1161 76.3101 12.365 77.2345 12.8628C78.159 13.3606 78.8772 14.0503 79.3892 14.9321C79.9154 15.8139 80.1785 16.8166 80.1785 17.9401C80.1785 19.0637 79.9154 20.0734 79.3892 20.9694C78.8772 21.8512 78.159 22.541 77.2345 23.0388C76.3101 23.5366 75.2647 23.7854 74.0985 23.7854ZM74.0985 21.5028C75.0798 21.5028 75.8905 21.1757 76.5305 20.5214C77.1705 19.8672 77.4905 19.0068 77.4905 17.9401C77.4905 16.8734 77.1705 16.013 76.5305 15.3588C75.8905 14.7046 75.0798 14.3774 74.0985 14.3774C73.1172 14.3774 72.3065 14.7046 71.6665 15.3588C71.0407 16.013 70.7278 16.8734 70.7278 17.9401C70.7278 19.0068 71.0407 19.8672 71.6665 20.5214C72.3065 21.1757 73.1172 21.5028 74.0985 21.5028ZM88.4448 12.1161C89.6253 12.1161 90.6564 12.3579 91.5382 12.8414C92.4342 13.325 93.1239 14.0077 93.6075 14.8894C94.1053 15.7712 94.3542 16.7952 94.3542 17.9614C94.3542 19.1134 94.1195 20.1303 93.6502 21.0121C93.1808 21.8939 92.5195 22.5766 91.6662 23.0601C90.8271 23.5437 89.8528 23.7854 88.7435 23.7854C87.1648 23.7854 85.9275 23.2806 85.0315 22.2708V27.7748H82.3435V17.9828C82.3435 16.8308 82.5995 15.8139 83.1115 14.9321C83.6235 14.0361 84.3346 13.3463 85.2448 12.8628C86.1693 12.365 87.2359 12.1161 88.4448 12.1161ZM88.3382 21.5241C89.3337 21.5241 90.1444 21.197 90.7702 20.5428C91.3959 19.8743 91.7088 19.0139 91.7088 17.9614C91.7088 16.909 91.3959 16.0486 90.7702 15.3801C90.1444 14.7117 89.3337 14.3774 88.3382 14.3774C87.3284 14.3774 86.5177 14.7046 85.9062 15.3588C85.2946 16.013 84.9888 16.8734 84.9888 17.9401C84.9888 19.0068 85.2946 19.8743 85.9062 20.5428C86.5319 21.197 87.3426 21.5241 88.3382 21.5241ZM108.72 17.3428H105.946V23.6361H103.216V8.70277H105.946V14.9534H108.805L113.093 8.70277H116.037L110.938 15.9348L116.229 23.6361H113.093L108.72 17.3428ZM122.744 23.7854C121.592 23.7854 120.554 23.5366 119.63 23.0388C118.705 22.541 117.98 21.8512 117.454 20.9694C116.942 20.0734 116.686 19.0637 116.686 17.9401C116.686 16.8166 116.942 15.8139 117.454 14.9321C117.98 14.0503 118.705 13.3606 119.63 12.8628C120.554 12.365 121.592 12.1161 122.744 12.1161C123.911 12.1161 124.956 12.365 125.88 12.8628C126.805 13.3606 127.523 14.0503 128.035 14.9321C128.561 15.8139 128.824 16.8166 128.824 17.9401C128.824 19.0637 128.561 20.0734 128.035 20.9694C127.523 21.8512 126.805 22.541 125.88 23.0388C124.956 23.5366 123.911 23.7854 122.744 23.7854ZM122.744 21.5028C123.726 21.5028 124.536 21.1757 125.176 20.5214C125.816 19.8672 126.136 19.0068 126.136 17.9401C126.136 16.8734 125.816 16.013 125.176 15.3588C124.536 14.7046 123.726 14.3774 122.744 14.3774C121.763 14.3774 120.952 14.7046 120.312 15.3588C119.687 16.013 119.374 16.8734 119.374 17.9401C119.374 19.0068 119.687 19.8672 120.312 20.5214C120.952 21.1757 121.763 21.5028 122.744 21.5028ZM145.837 12.1161C147.274 12.1161 148.412 12.5357 149.251 13.3748C150.09 14.1997 150.509 15.4441 150.509 17.1081V23.6361H147.843V17.4494C147.843 16.4539 147.622 15.7072 147.181 15.2094C146.74 14.6974 146.108 14.4414 145.283 14.4414C144.387 14.4414 143.668 14.7401 143.128 15.3374C142.588 15.9206 142.317 16.7597 142.317 17.8548V23.6361H139.651V17.4494C139.651 16.4539 139.43 15.7072 138.989 15.2094C138.548 14.6974 137.916 14.4414 137.091 14.4414C136.18 14.4414 135.455 14.733 134.915 15.3161C134.388 15.8992 134.125 16.7454 134.125 17.8548V23.6361H131.459V12.2441H133.997V13.6948C134.424 13.1828 134.957 12.7917 135.597 12.5214C136.237 12.2512 136.948 12.1161 137.731 12.1161C138.584 12.1161 139.338 12.2797 139.992 12.6068C140.66 12.9197 141.187 13.389 141.571 14.0148C142.04 13.4174 142.644 12.9552 143.384 12.6281C144.124 12.2868 144.941 12.1161 145.837 12.1161Z" fill="#305398"/>
</svg>
